<svg xmlns="http://www.w3.org/2000/svg" viewBox="0 0 100 80">
    <path d="M41.199 12.556a7.731 7.731 0 00-6.227 3.174 11.07 11.07 0 00-.729-.024c-5.082 0-9.217 3.546-9.217 7.904 0 .41.037.818.111 1.221-3.227 1.264-5.36 4.034-5.36 7.179 0 .981.212 1.946.621 2.851-2.196 1.829-3.509 4.632-3.509 7.647 0 3.258 1.541 6.26 4.033 8.053a8.086 8.086 0 00-.621 3.104c0 4.721 4.076 8.561 9.086 8.561a9.32 9.32 0 001.132-.068c.966 3.495 4.682 6.105 9.104 6.105 5.127 0 9.229-3.396 9.34-7.773l.008-40.028c.002-4.36-3.485-7.906-7.772-7.906zM27.482 27.475l1.999-.41-.87-1.847a3.75 3.75 0 01-.374-1.608c0-2.588 2.695-4.694 6.006-4.694.428 0 .856.036 1.272.107l1.139.195.545-1.019a4.63 4.63 0 012.176-2.039v17.074a2.9 2.9 0 00-1.245 1.245h-3.346v-7.156a2.91 2.91 0 001.583-2.583 2.921 2.921 0 00-5.842 0c0 1.129.647 2.097 1.584 2.584v7.155h-8.207l-.087-.117c-.549-.731-.828-1.522-.828-2.353.001-2.127 1.848-3.991 4.495-4.534zm1.907 31.54c-3.24 0-5.876-2.4-5.876-5.351 0-.985.304-1.953.878-2.801l1.056-1.557-1.705-.798c-1.821-.851-3.097-2.604-3.496-4.651h14.142a2.908 2.908 0 002.582 1.584 2.922 2.922 0 000-5.844 2.908 2.908 0 00-2.582 1.584H20.239c.317-1.661 1.212-3.125 2.524-4.084v.057h15.369a2.907 2.907 0 002.583 1.584 2.922 2.922 0 002.921-2.922 2.908 2.908 0 00-1.583-2.582V15.855c2.108.413 3.709 2.317 3.709 4.605l-.004 28.399H35.164a2.911 2.911 0 00-2.583-1.582 2.922 2.922 0 00-2.921 2.92c0 1.129.647 2.097 1.583 2.584v5.941a6.29 6.29 0 01-1.854.293zm11.761 5.881v-4.498a2.91 2.91 0 001.584-2.584 2.922 2.922 0 00-5.843 0 2.91 2.91 0 001.583 2.584v4.568c-2.084-.304-3.794-1.411-4.558-2.863v-9.322a2.91 2.91 0 001.246-1.246h10.593l-.002 8.912c-.052 2.136-2.009 3.932-4.603 4.449zM83.217 42.508c0-3.016-1.313-5.818-3.51-7.647.41-.905.622-1.87.622-2.851 0-3.145-2.134-5.915-5.36-7.179.074-.403.111-.811.111-1.221 0-4.358-4.135-7.904-9.217-7.904-.243 0-.486.008-.729.024a7.733 7.733 0 00-6.228-3.174c-4.286 0-7.773 3.546-7.773 7.905l.009 40.069c.109 4.336 4.212 7.732 9.339 7.732 4.423 0 8.139-2.61 9.104-6.105.376.046.754.068 1.133.068 5.01 0 9.086-3.84 9.086-8.561a8.112 8.112 0 00-.621-3.104c2.493-1.792 4.034-4.794 4.034-8.052zM62.906 18.199l.545 1.019 1.139-.195a7.612 7.612 0 011.273-.107c3.312 0 6.006 2.106 6.006 4.694 0 .542-.125 1.082-.373 1.608l-.871 1.847 2 .41c2.646.543 4.494 2.408 4.494 4.535 0 .831-.279 1.622-.828 2.353l-.088.117h-8.207v-7.155a2.91 2.91 0 001.584-2.584 2.921 2.921 0 00-5.842 0 2.91 2.91 0 001.582 2.583v7.156h-3.346a2.906 2.906 0 00-1.245-1.245V16.161a4.621 4.621 0 012.177 2.038zm-1.275 46.767v-4.567a2.91 2.91 0 001.584-2.584 2.921 2.921 0 00-5.842 0c0 1.129.646 2.096 1.583 2.584v4.498c-2.593-.518-4.55-2.307-4.604-4.408l-.001-8.953h10.593c.277.535.711.969 1.246 1.246v9.293c-.763 1.476-2.473 2.587-4.559 2.891zm14.734-16.457l-1.705.798 1.057 1.557c.574.848.877 1.815.877 2.801 0 2.95-2.635 5.351-5.875 5.351a6.28 6.28 0 01-1.854-.292v-5.941a2.91 2.91 0 001.583-2.584 2.922 2.922 0 00-2.921-2.92 2.91 2.91 0 00-2.583 1.582H54.35l-.006-28.401c0-2.288 1.602-4.192 3.711-4.605v17.379a2.907 2.907 0 00-1.584 2.582 2.922 2.922 0 002.922 2.922 2.907 2.907 0 002.582-1.584h15.369v-.057c1.312.959 2.207 2.423 2.523 4.084H65.719a2.907 2.907 0 00-2.582-1.584 2.923 2.923 0 000 5.844 2.907 2.907 0 002.582-1.584h14.143c-.401 2.048-1.676 3.801-3.497 4.652z"/>
</svg>
